<?xml version="1.0" encoding="UTF-8"?>
<svg xmlns="http://www.w3.org/2000/svg" version="1.1" viewBox="0 0 200 60">
  <defs>
    <style>
      .cls-1 {
        fill: #010101;
      }

      .cls-2 {
        fill: #f3f7f6;
      }

      .cls-3 {
        fill: none;
      }

      .cls-4 {
        fill: #231f20;
      }

      .cls-5 {
        fill: #ed1c24;
      }
    </style>
  </defs>
  <!-- Generator: Adobe Illustrator 28.6.0, SVG Export Plug-In . SVG Version: 1.2.0 Build 709)  -->
  <g>
    <g id="Layer_1">
      <rect class="cls-5" x="31.6" y="33.5" width="137.8" height="20.9"/>
      <path class="cls-2" d="M82.8,45.5c1.3-.5,1.9-1.7,1.9-3.3,0-2.5-1.8-3.6-5.2-3.6h-3.8s0,11.8,0,11.8h2.3v-4.5h2.6l1.7,4.5h2.6l-2-4.9ZM78,40.6h2.1c1.4,0,2.2.7,2.2,1.8s-.8,1.6-2.2,1.6h-2.1v-3.4Z"/>
      <path class="cls-2" d="M98.4,38.7h7.9s0,2.1,0,2.1h-5.1s0,2.6,0,2.6h4.7v1.9s-4.7,0-4.7,0v3h5.3s0,1.9,0,1.9h-8s0-11.5,0-11.5Z"/>
      <path class="cls-2" d="M53.2,38.5h5c2.5,0,4.3,1.4,4.3,3.7s-2,3.8-4.3,3.8h-2.3v4.5h-2.6v-12h0ZM55.8,43.9h2c1.2,0,2-.5,2-1.7s-.9-1.7-2-1.7h-2v3.4h0Z"/>
      <path class="cls-2" d="M120.4,47c.3,1.2,1.1,1.7,2.5,1.7s2-.5,2-1.4-.6-1.4-2.6-1.9c-3.3-.8-4.1-2-4.1-3.6s1.6-3.5,4.4-3.5,4.5,1.7,4.6,3.5h-2.6c-.1-.7-.5-1.5-2.1-1.5s-1.7.4-1.7,1.3.5,1.2,2.4,1.6c3.5.8,4.3,2.1,4.3,3.8s-1.7,3.7-4.8,3.7-4.7-1.5-4.9-3.7h2.6Z"/>
      <path class="cls-2" d="M140.9,47c.3,1.2,1.1,1.7,2.5,1.7s2-.5,2-1.4-.6-1.4-2.6-1.9c-3.3-.8-4.1-2-4.1-3.6s1.6-3.5,4.4-3.5,4.5,1.7,4.6,3.5h-2.6c-.1-.7-.5-1.5-2.1-1.5s-1.7.4-1.7,1.3.5,1.2,2.4,1.6c3.5.8,4.3,2.1,4.3,3.8s-1.7,3.7-4.8,3.7-4.7-1.5-4.9-3.7h2.6Z"/>
      <g>
        <g>
          <polygon class="cls-4" points="29.9 8.1 29.9 12.1 24.3 12.1 24.3 27.3 19.8 27.3 19.8 12.1 14.1 12.1 14.1 8.1 29.9 8.1"/>
          <path class="cls-4" d="M43.9,19.6c2.2-.9,3.6-2.3,3.6-5.2,0-4.6-3.6-6-7.9-6h-7.3v18.9h4.6v-6.9h2.4l3.5,6.9h4.6c0,0-3.6-7.7-3.6-7.7ZM37,11.9h2.3c2.4,0,3.7.6,3.7,2.5s-1.3,2.5-3.7,2.5h-2.3v-5Z"/>
          <path class="cls-4" d="M50.5,20.1v-11.7h4.3v12.1c0,2.3,1.7,3.5,3.8,3.5,2.1,0,3-1.1,3.3-2.6,0-.3,0-.7,0-1l.2-12.1h4.2v11.7c0,4.9-2.6,7.7-7.9,7.7-5.3,0-8-2.7-8-7.7Z"/>
          <path class="cls-1" d="M92,12h-5.7v-3.6h15.4v3.6h-5.4v15.1h-4.3s0-15.1,0-15.1Z"/>
          <path class="cls-1" d="M73.5,21.3c.4,1.5,1.5,2.3,3.5,2.4,1.9,0,2.6-.6,2.6-1.7,0-1.2-.8-1.7-3.4-2.4-6-1.6-7-3.5-6.9-6.1,0-2.7,2.1-5.6,7.6-5.4,5.6.1,7.4,3.5,7.5,6h-4.5c-.1-.7-.9-2.6-3.3-2.6-1.7,0-2.2,1-2.3,1.8,0,.9.5,1.4,3.5,2.1,6.2,1.6,7,3.7,6.9,6.4,0,3.1-2.5,5.8-8.1,5.7-5.6-.1-7-2.8-7.3-6.1h4.2Z"/>
        </g>
        <g>
          <path class="cls-1" d="M124.4,8.1h1.9s-1.9,0-1.9,0Z"/>
          <path class="cls-1" d="M130.1,8.5h12.6s0,3.3,0,3.3h-8.2s0,4.2,0,4.2h7.6v3.1s-7.6,0-7.6,0v4.9h8.5s0,3,0,3h-12.8s-.1-18.5-.1-18.5Z"/>
          <polygon class="cls-1" points="126.4 8.1 126.4 13 126.3 23.4 126.3 27 121.9 27 119.5 23.4 114.1 14.9 114.2 23.4 114.2 27 110.3 27 110.3 23.4 110.3 13 110.3 8.2 114.3 8.2 117.5 13 121.9 19.8 122 13 122 8.2 124.4 8.1 126.4 8.1"/>
          <path class="cls-1" d="M175.7,21.3c.4,1.5,1.5,2.3,3.5,2.4,1.9,0,2.6-.6,2.6-1.7,0-1.2-.8-1.7-3.4-2.4-6-1.6-7-3.5-6.9-6.1,0-2.7,2.1-5.6,7.6-5.4,5.6.1,7.4,3.5,7.5,6h-4.5c-.1-.7-.9-2.6-3.3-2.6-1.7,0-2.2,1-2.3,1.8,0,.9.5,1.4,3.5,2.1,6.2,1.6,7,3.7,6.9,6.4,0,3.1-2.5,5.8-8.1,5.7-5.6-.1-7-2.8-7.3-6.1h4.2Z"/>
          <path class="cls-1" d="M169.5,8.2l-4.2,18.5h-4.1s-3.5-12.5-3.5-12.5c0,0-3.4,11.7-3.6,12.5h-4.5l-4.1-18.5h3.7s2.9,13.1,2.9,13.1l3.5-13.2h4s3.3,13.1,3.3,13.1l2.7-13.1h3.9Z"/>
        </g>
      </g>
      <rect class="cls-3" x=".8" width="199.2" height="60"/>
    </g>
  </g>
</svg>